<?xml version="1.0" encoding="utf-8"?>
<!-- Generator: Adobe Illustrator 16.0.0, SVG Export Plug-In . SVG Version: 6.00 Build 0)  -->
<!DOCTYPE svg PUBLIC "-//W3C//DTD SVG 1.1//EN" "http://www.w3.org/Graphics/SVG/1.1/DTD/svg11.dtd">
<svg version="1.1" id="图层_1" xmlns="http://www.w3.org/2000/svg" xmlns:xlink="http://www.w3.org/1999/xlink" x="0px" y="0px"
	 width="283.46px" height="283.46px" viewBox="0 0 283.46 283.46" enable-background="new 0 0 283.46 283.46" xml:space="preserve">
<g>
	<path fill="#F39800" d="M154.208,128.845c41.432-20.941,64.441-68.265,52.698-115.184l-33.705,8.375
		c8.97,35.867-12.822,72.143-48.662,81.133c-35.847,8.93-72.143-12.88-81.106-48.681L9.727,62.89
		c11.391,45.641,52.009,76.154,96.932,76.899C54.6,163.913,25.624,223.825,40.493,283.462l40.193-10.062
		c-11.052-44.235,14.642-88.771,57.401-99.435c42.755-10.7,86.349,16.505,97.419,60.781l40.228-10.076
		C261.19,166.624,209.832,127.904,154.208,128.845z"/>
	<path fill="#F39800" d="M156.406,34.395c6.055,24.38-8.761,48.992-33.056,55.076c-24.341,6.088-48.992-8.701-55.056-33.055
		C62.213,32.059,77.006,7.435,101.348,1.36C125.675-4.712,150.307,10.085,156.406,34.395z"/>
</g>
</svg>
